<svg width="66" height="67" viewBox="0 0 66 67" fill="none" xmlns="http://www.w3.org/2000/svg">
<rect x="0.5" y="1.03235" width="65" height="65" rx="14.5" fill="white"/>
<rect x="0.5" y="1.03235" width="65" height="65" rx="14.5" stroke="#CBD5E1"/>
<path fill-rule="evenodd" clip-rule="evenodd" d="M12.7307 20.5441C11.5564 20.5441 10.6 21.5156 10.6 22.7139V49.7625C10.6 50.9585 11.5539 51.9323 12.7307 51.9323H53.2693C54.4437 51.9323 55.4 50.9609 55.4 49.7625V22.7139C55.4 21.5179 54.4459 20.5441 53.2693 20.5441H45.3492C44.9923 20.3257 44.6349 20.0681 44.2927 19.7644C42.3388 18.0305 42.0466 17.0111 42.0466 17.0111C41.6017 15.9735 40.2859 15.1323 39.1101 15.1323H33V17.8382V15.1323H26.8899C25.7141 15.1323 24.3983 15.9735 23.9534 17.0111C23.9534 17.0111 23.6612 18.0305 21.7073 19.7644C21.3651 20.0681 21.0077 20.3257 20.6508 20.5441H12.7307Z" fill="url(#paint0_linear_1_1190)"/>
<path fill-rule="evenodd" clip-rule="evenodd" d="M42.0466 17.0111C42.0466 17.0111 42.3388 18.0305 44.2927 19.7644C44.6349 20.0681 44.9923 20.3257 45.3492 20.5441H53.2693C54.4459 20.5441 55.4 21.5179 55.4 22.7139V49.7625C55.4 50.9609 54.4437 51.9323 53.2693 51.9323H12.7307C11.5539 51.9323 10.6 50.9585 10.6 49.7625V22.7139C10.6 21.5156 11.5564 20.5441 12.7307 20.5441H20.6508C21.0077 20.3257 21.3651 20.0681 21.7073 19.7644C23.6612 18.0305 23.9534 17.0111 23.9534 17.0111C24.3983 15.9735 25.7141 15.1323 26.8899 15.1323H39.1101C40.2859 15.1323 41.6017 15.9735 42.0466 17.0111ZM39.1101 14.1323C39.9242 14.1323 40.7314 14.4181 41.3913 14.8402C42.0491 15.261 42.6465 15.8725 42.9657 16.6171L42.9905 16.6749L43.0009 16.7112C43.0049 16.7213 43.0132 16.7412 43.027 16.7704C43.0624 16.8454 43.1348 16.9833 43.2666 17.1793C43.5304 17.5714 44.0335 18.1974 44.9565 19.0165C45.1778 19.2129 45.4078 19.388 45.6413 19.5441H53.2693C55.0159 19.5441 56.4 20.9835 56.4 22.7139V49.7625C56.4 51.4966 55.0124 52.9323 53.2693 52.9323H12.7307C10.9839 52.9323 9.60001 51.4928 9.60001 49.7625V22.7139C9.60001 20.9798 10.9878 19.5441 12.7307 19.5441H20.3587C20.5922 19.388 20.8222 19.2129 21.0435 19.0165C21.9665 18.1974 22.4696 17.5714 22.7334 17.1793C22.8653 16.9833 22.9376 16.8454 22.973 16.7704C22.9868 16.7412 22.9951 16.7213 22.9991 16.7112L23.0095 16.6749L23.0344 16.6171C23.3535 15.8725 23.951 15.261 24.6087 14.8402C25.2686 14.4181 26.0758 14.1323 26.8899 14.1323H39.1101Z" fill="#CBD5E1"/>
<g filter="url(#filter0_ii_1_1190)">
<path d="M14.8667 19.1323C14.8667 18.6905 15.2249 18.3323 15.6667 18.3323H17.8001C18.2419 18.3323 18.6001 18.6905 18.6001 19.1323V20.4656H14.8667V19.1323Z" fill="url(#paint1_linear_1_1190)"/>
</g>
<g filter="url(#filter1_d_1_1190)">
<path fill-rule="evenodd" clip-rule="evenodd" d="M43.1332 28.4656C43.7223 28.4656 44.1999 27.9881 44.1999 27.3989C44.1999 26.8098 43.7223 26.3323 43.1332 26.3323C42.5441 26.3323 42.0665 26.8098 42.0665 27.3989C42.0665 27.9881 42.5441 28.4656 43.1332 28.4656Z" fill="url(#paint2_linear_1_1190)"/>
</g>
<g filter="url(#filter2_d_1_1190)">
<path d="M55.4 23.6656H10.6V24.199H55.4V23.6656Z" fill="white"/>
</g>
<g filter="url(#filter3_d_1_1190)">
<path d="M55.4 47.6656H10.6V48.199H55.4V47.6656Z" fill="white"/>
</g>
<g filter="url(#filter4_d_1_1190)">
<path fill-rule="evenodd" clip-rule="evenodd" d="M42.9332 35.9322C42.9332 41.4183 38.4859 45.8656 32.9999 45.8656C27.5138 45.8656 23.0666 41.4183 23.0666 35.9322C23.0666 30.4462 27.5138 25.9989 32.9999 25.9989C38.4859 25.9989 42.9332 30.4462 42.9332 35.9322ZM32.9999 44.8656C37.9337 44.8656 41.9332 40.866 41.9332 35.9322C41.9332 30.9985 37.9337 26.9989 32.9999 26.9989C28.0661 26.9989 24.0666 30.9985 24.0666 35.9322C24.0666 40.866 28.0661 44.8656 32.9999 44.8656Z" fill="white"/>
</g>
<defs>
<filter id="filter0_ii_1_1190" x="14.8667" y="17.3323" width="3.73334" height="4.1333" filterUnits="userSpaceOnUse" color-interpolation-filters="sRGB">
<feFlood flood-opacity="0" result="BackgroundImageFix"/>
<feBlend mode="normal" in="SourceGraphic" in2="BackgroundImageFix" result="shape"/>
<feColorMatrix in="SourceAlpha" type="matrix" values="0 0 0 0 0 0 0 0 0 0 0 0 0 0 0 0 0 0 127 0" result="hardAlpha"/>
<feOffset dy="1"/>
<feGaussianBlur stdDeviation="1"/>
<feComposite in2="hardAlpha" operator="arithmetic" k2="-1" k3="1"/>
<feColorMatrix type="matrix" values="0 0 0 0 0 0 0 0 0 0 0 0 0 0 0 0 0 0 0.694265 0"/>
<feBlend mode="normal" in2="shape" result="effect1_innerShadow_1_1190"/>
<feColorMatrix in="SourceAlpha" type="matrix" values="0 0 0 0 0 0 0 0 0 0 0 0 0 0 0 0 0 0 127 0" result="hardAlpha"/>
<feOffset dy="-1"/>
<feGaussianBlur stdDeviation="2"/>
<feComposite in2="hardAlpha" operator="arithmetic" k2="-1" k3="1"/>
<feColorMatrix type="matrix" values="0 0 0 0 0.8 0 0 0 0 0.807843 0 0 0 0 0.815686 0 0 0 1 0"/>
<feBlend mode="normal" in2="effect1_innerShadow_1_1190" result="effect2_innerShadow_1_1190"/>
</filter>
<filter id="filter1_d_1_1190" x="40.0665" y="25.3323" width="6.13333" height="6.1333" filterUnits="userSpaceOnUse" color-interpolation-filters="sRGB">
<feFlood flood-opacity="0" result="BackgroundImageFix"/>
<feColorMatrix in="SourceAlpha" type="matrix" values="0 0 0 0 0 0 0 0 0 0 0 0 0 0 0 0 0 0 127 0" result="hardAlpha"/>
<feOffset dy="1"/>
<feGaussianBlur stdDeviation="1"/>
<feColorMatrix type="matrix" values="0 0 0 0 0 0 0 0 0 0 0 0 0 0 0 0 0 0 0.578182 0"/>
<feBlend mode="normal" in2="BackgroundImageFix" result="effect1_dropShadow_1_1190"/>
<feBlend mode="normal" in="SourceGraphic" in2="effect1_dropShadow_1_1190" result="shape"/>
</filter>
<filter id="filter2_d_1_1190" x="9.60001" y="23.6656" width="46.8" height="2.53333" filterUnits="userSpaceOnUse" color-interpolation-filters="sRGB">
<feFlood flood-opacity="0" result="BackgroundImageFix"/>
<feColorMatrix in="SourceAlpha" type="matrix" values="0 0 0 0 0 0 0 0 0 0 0 0 0 0 0 0 0 0 127 0" result="hardAlpha"/>
<feOffset dy="1"/>
<feGaussianBlur stdDeviation="0.5"/>
<feColorMatrix type="matrix" values="0 0 0 0 0 0 0 0 0 0 0 0 0 0 0 0 0 0 0.407609 0"/>
<feBlend mode="normal" in2="BackgroundImageFix" result="effect1_dropShadow_1_1190"/>
<feBlend mode="normal" in="SourceGraphic" in2="effect1_dropShadow_1_1190" result="shape"/>
</filter>
<filter id="filter3_d_1_1190" x="9.60001" y="47.6656" width="46.8" height="2.53333" filterUnits="userSpaceOnUse" color-interpolation-filters="sRGB">
<feFlood flood-opacity="0" result="BackgroundImageFix"/>
<feColorMatrix in="SourceAlpha" type="matrix" values="0 0 0 0 0 0 0 0 0 0 0 0 0 0 0 0 0 0 127 0" result="hardAlpha"/>
<feOffset dy="1"/>
<feGaussianBlur stdDeviation="0.5"/>
<feColorMatrix type="matrix" values="0 0 0 0 0 0 0 0 0 0 0 0 0 0 0 0 0 0 0.407609 0"/>
<feBlend mode="normal" in2="BackgroundImageFix" result="effect1_dropShadow_1_1190"/>
<feBlend mode="normal" in="SourceGraphic" in2="effect1_dropShadow_1_1190" result="shape"/>
</filter>
<filter id="filter4_d_1_1190" x="22.5666" y="25.9989" width="20.8667" height="21.3667" filterUnits="userSpaceOnUse" color-interpolation-filters="sRGB">
<feFlood flood-opacity="0" result="BackgroundImageFix"/>
<feColorMatrix in="SourceAlpha" type="matrix" values="0 0 0 0 0 0 0 0 0 0 0 0 0 0 0 0 0 0 127 0" result="hardAlpha"/>
<feOffset dy="1"/>
<feGaussianBlur stdDeviation="0.25"/>
<feColorMatrix type="matrix" values="0 0 0 0 0 0 0 0 0 0 0 0 0 0 0 0 0 0 0.579031 0"/>
<feBlend mode="normal" in2="BackgroundImageFix" result="effect1_dropShadow_1_1190"/>
<feBlend mode="normal" in="SourceGraphic" in2="effect1_dropShadow_1_1190" result="shape"/>
</filter>
<linearGradient id="paint0_linear_1_1190" x1="14.1363" y1="12.4633" x2="14.1363" y2="43.4536" gradientUnits="userSpaceOnUse">
<stop stop-color="#494949"/>
<stop offset="1" stop-color="#2B2B2B"/>
</linearGradient>
<linearGradient id="paint1_linear_1_1190" x1="14.8667" y1="18.3323" x2="14.8667" y2="20.4656" gradientUnits="userSpaceOnUse">
<stop stop-color="#494949"/>
<stop offset="1" stop-color="#2B2B2B"/>
</linearGradient>
<linearGradient id="paint2_linear_1_1190" x1="41.5838" y1="25.3668" x2="41.5838" y2="28.4656" gradientUnits="userSpaceOnUse">
<stop stop-color="#E9CD78"/>
<stop offset="1" stop-color="#E7B61D"/>
</linearGradient>
</defs>
</svg>
