<svg width="70" height="71" viewBox="0 0 70 71" fill="none" xmlns="http://www.w3.org/2000/svg">
<rect x="1.5" y="2.03235" width="67" height="67" rx="15.5" fill="white"/>
<rect x="1.5" y="2.03235" width="67" height="67" rx="15.5" stroke="#FB923C" stroke-width="3"/>
<g filter="url(#filter0_i_1_1188)">
<path fill-rule="evenodd" clip-rule="evenodd" d="M26.9621 14.7323H42.9621L58.4288 42.4656H42.4288L26.9621 14.7323Z" fill="#FFCF48"/>
</g>
<g filter="url(#filter1_i_1_1188)">
<path fill-rule="evenodd" clip-rule="evenodd" d="M19.5709 55.2656C21.89 50.9587 27.0376 42.4656 27.0376 42.4656H58.5045L50.5043 56.3322H19.5709C19.5709 56.3322 19.4011 55.581 19.5709 55.2656Z" fill="#4587F4"/>
</g>
<path fill-rule="evenodd" clip-rule="evenodd" d="M26.9621 14.7323L34.9621 29.1323L19.4955 56.3323L11.4955 42.4656L26.9621 14.7323Z" fill="#1BA261"/>
<path fill-rule="evenodd" clip-rule="evenodd" d="M27.3705 42.4945L34.1334 55.7861H19.822L27.3705 42.4945Z" fill="url(#paint0_linear_1_1188)"/>
<path fill-rule="evenodd" clip-rule="evenodd" d="M27.3705 42.4945L34.1334 55.7861H19.822L27.3705 42.4945Z" fill="url(#paint1_linear_1_1188)"/>
<path fill-rule="evenodd" clip-rule="evenodd" d="M26.9767 14.7502L31.6242 34.9924L34.9867 29.1134L26.9767 14.7502Z" fill="url(#paint2_linear_1_1188)"/>
<defs>
<filter id="filter0_i_1_1188" x="26.9621" y="14.7323" width="32.0667" height="28.7333" filterUnits="userSpaceOnUse" color-interpolation-filters="sRGB">
<feFlood flood-opacity="0" result="BackgroundImageFix"/>
<feBlend mode="normal" in="SourceGraphic" in2="BackgroundImageFix" result="shape"/>
<feColorMatrix in="SourceAlpha" type="matrix" values="0 0 0 0 0 0 0 0 0 0 0 0 0 0 0 0 0 0 127 0" result="hardAlpha"/>
<feOffset dx="0.6" dy="1"/>
<feGaussianBlur stdDeviation="2"/>
<feComposite in2="hardAlpha" operator="arithmetic" k2="-1" k3="1"/>
<feColorMatrix type="matrix" values="0 0 0 0 1 0 0 0 0 0.88914 0 0 0 0 0.556562 0 0 0 1 0"/>
<feBlend mode="normal" in2="shape" result="effect1_innerShadow_1_1188"/>
</filter>
<filter id="filter1_i_1_1188" x="19.4955" y="41.4656" width="39.6091" height="14.8667" filterUnits="userSpaceOnUse" color-interpolation-filters="sRGB">
<feFlood flood-opacity="0" result="BackgroundImageFix"/>
<feBlend mode="normal" in="SourceGraphic" in2="BackgroundImageFix" result="shape"/>
<feColorMatrix in="SourceAlpha" type="matrix" values="0 0 0 0 0 0 0 0 0 0 0 0 0 0 0 0 0 0 127 0" result="hardAlpha"/>
<feOffset dx="0.6" dy="-1"/>
<feGaussianBlur stdDeviation="2"/>
<feComposite in2="hardAlpha" operator="arithmetic" k2="-1" k3="1"/>
<feColorMatrix type="matrix" values="0 0 0 0 0.580392 0 0 0 0 0.713726 0 0 0 0 0.909804 0 0 0 1 0"/>
<feBlend mode="normal" in2="shape" result="effect1_innerShadow_1_1188"/>
</filter>
<linearGradient id="paint0_linear_1_1188" x1="14.9037" y1="36.338" x2="14.9037" y2="57.0645" gradientUnits="userSpaceOnUse">
<stop stop-color="#155ACA"/>
<stop offset="1" stop-color="#2F71DD" stop-opacity="0.01"/>
</linearGradient>
<linearGradient id="paint1_linear_1_1188" x1="19.3023" y1="50.6865" x2="23.9942" y2="53.7703" gradientUnits="userSpaceOnUse">
<stop stop-color="#002D77" stop-opacity="0.8018"/>
<stop offset="1" stop-color="#2F71DD" stop-opacity="0.01"/>
</linearGradient>
<linearGradient id="paint2_linear_1_1188" x1="26.7554" y1="25.4453" x2="36.2989" y2="30.7038" gradientUnits="userSpaceOnUse">
<stop stop-color="#1B935A"/>
<stop offset="1" stop-color="#118B50" stop-opacity="0.01"/>
</linearGradient>
</defs>
</svg>
