<svg width="66" height="67" viewBox="0 0 66 67" fill="none" xmlns="http://www.w3.org/2000/svg">
<rect x="0.5" y="1.03235" width="65" height="65" rx="14.5" fill="white"/>
<rect x="0.5" y="1.03235" width="65" height="65" rx="14.5" stroke="#CBD5E1"/>
<path fill-rule="evenodd" clip-rule="evenodd" d="M33 36.5269C33.1894 36.7575 40.2752 45.3328 46.9723 45.3328C53.7607 45.3328 57.6039 38.4976 57.6039 38.4976C60.2493 33.7558 57.9037 29.1131 57.9037 29.1131C57.9037 29.1131 54.5095 21.7318 46.9723 21.7318C39.5423 21.7318 33.1793 30.393 33 30.639C32.8208 30.393 26.4578 21.7318 19.0278 21.7318C11.4908 21.7318 8.09636 29.1131 8.09636 29.1131C8.09636 29.1131 5.75072 33.7558 8.39599 38.4976C8.39599 38.4976 12.2395 45.3328 19.0278 45.3328C25.7249 45.3328 32.8107 36.7575 33 36.5269ZM19.3127 25.8535C14.6701 25.8535 12.6941 29.6316 12.6941 29.6316C12.6941 29.6316 10.5703 33.0151 12.6941 37.3617C14.8183 41.7084 19.2391 41.3132 19.2391 41.3132C19.2391 41.3132 21.6444 41.6588 25.496 38.3431C26.8308 37.1941 28.3392 35.6054 29.9815 33.4103C29.9815 33.4103 23.9559 25.8535 19.3127 25.8535ZM46.9523 25.8535C51.595 25.8535 53.571 29.6316 53.571 29.6316C53.571 29.6316 55.6946 33.0151 53.571 37.3617C51.4467 41.7084 47.0259 41.3132 47.0259 41.3132C47.0259 41.3132 44.6207 41.6588 40.769 38.3431C39.4342 37.1941 37.9258 35.6054 36.2835 33.4103C36.2835 33.4103 42.3091 25.8535 46.9523 25.8535Z" fill="url(#paint0_linear_1_1191)"/>
<defs>
<linearGradient id="paint0_linear_1_1191" x1="30.1372" y1="45.7318" x2="34.1373" y2="21.7318" gradientUnits="userSpaceOnUse">
<stop stop-color="#FB923C"/>
<stop offset="0.496353" stop-color="#EF4444"/>
<stop offset="1" stop-color="#701A75"/>
</linearGradient>
</defs>
</svg>
