<svg width="14" height="8" viewBox="0 0 14 8" fill="none" xmlns="http://www.w3.org/2000/svg">
<path d="M7.07105 5.314L12.0211 0.364004C12.1133 0.268494 12.2236 0.192312 12.3456 0.139903C12.4677 0.0874936 12.5989 0.0599074 12.7317 0.0587536C12.8644 0.0575998 12.9961 0.0829015 13.119 0.133182C13.2419 0.183463 13.3536 0.257716 13.4474 0.351609C13.5413 0.445502 13.6156 0.557154 13.6659 0.68005C13.7162 0.802946 13.7415 0.934626 13.7403 1.06741C13.7391 1.20018 13.7116 1.3314 13.6592 1.45341C13.6067 1.57541 13.5306 1.68576 13.4351 1.778L7.77805 7.435C7.59052 7.62247 7.33622 7.72779 7.07105 7.72779C6.80589 7.72779 6.55158 7.62247 6.36405 7.435L0.707052 1.778C0.611542 1.68576 0.53536 1.57541 0.482951 1.45341C0.430542 1.3314 0.402955 1.20018 0.401802 1.06741C0.400648 0.934626 0.42595 0.802946 0.47623 0.68005C0.526511 0.557154 0.600764 0.445502 0.694657 0.351609C0.78855 0.257716 0.900202 0.183463 1.0231 0.133182C1.14599 0.0829015 1.27767 0.0575998 1.41045 0.0587536C1.54323 0.0599074 1.67445 0.0874936 1.79646 0.139903C1.91846 0.192312 2.02881 0.268494 2.12105 0.364004L7.07105 5.314Z" fill="#0F172A"/>
</svg>
