<svg width="38" height="41" viewBox="0 0 38 41" fill="none" xmlns="http://www.w3.org/2000/svg">
<g filter="url(#filter0_d_1_1040)">
<path d="M18.6358 22.0523C17.7585 22.0562 16.8928 21.8436 16.1097 21.4321C15.3266 21.0206 14.6484 20.4218 14.1308 19.6849L10.5231 21.8406C10.6604 22.0052 10.8229 22.145 11.0042 22.2544L17.424 26.1037C17.7992 26.3031 18.2145 26.407 18.6358 26.407C19.0571 26.407 19.4724 26.3031 19.8476 26.1037L26.2674 22.2544C26.4487 22.145 26.6112 22.0052 26.7485 21.8406L23.15 19.6465C22.6355 20.3918 21.9576 20.9988 21.1725 21.4172C20.3875 21.8356 19.5179 22.0533 18.6358 22.0523Z" fill="#64748B"/>
<path d="M12.9864 16.2432C12.9897 14.8746 13.5216 13.5552 14.4805 12.5371C15.4393 11.519 16.758 10.8736 18.1842 10.7243V6.57602C17.9678 6.61893 17.7597 6.69338 17.567 6.79677L10.8745 10.476C10.5107 10.7081 10.2082 11.0174 9.99078 11.3797C9.77327 11.7419 9.64667 12.1472 9.62084 12.5639V19.9224C9.62382 20.1347 9.65951 20.3455 9.72689 20.5478L13.4879 18.4783C13.159 17.7748 12.9882 17.0134 12.9864 16.2432Z" fill="#64748B"/>
<path d="M26.4622 10.4734L20.1218 6.79664C19.9394 6.69329 19.7422 6.61888 19.5371 6.57602V10.7124C20.3985 10.8106 21.2249 11.1109 21.9498 11.5892C22.6747 12.0674 23.2779 12.7102 23.7107 13.4659C24.1436 14.2215 24.394 15.0689 24.4419 15.9398C24.4897 16.8106 24.3337 17.6806 23.9863 18.4797L27.5494 20.5478C27.6132 20.3456 27.647 20.135 27.6498 19.9228V12.5692C27.6267 12.1512 27.5074 11.7443 27.3013 11.3806C27.0952 11.0169 26.8079 10.7063 26.4622 10.4734Z" fill="#64748B"/>
<path d="M31.0796 6.78836L20.6129 0.735041C19.9991 0.426714 19.3218 0.266174 18.635 0.266174C17.9482 0.266174 17.271 0.426714 16.6571 0.735041L6.1903 6.78836C5.61579 7.16317 5.13746 7.668 4.79384 8.26207C4.45027 8.85614 4.2511 9.52278 4.21243 10.2081V22.3147C4.25038 23.0015 4.44919 23.6698 4.79276 24.2655C5.13633 24.8612 5.61507 25.3677 6.1903 25.744L16.6571 31.7974C17.271 32.1057 17.9482 32.2662 18.635 32.2662C19.3218 32.2662 19.9991 32.1057 20.6129 31.7974L31.0796 25.744C31.6549 25.3677 32.1336 24.8612 32.4772 24.2655C32.8207 23.6698 33.0196 23.0015 33.0575 22.3147V10.2081C33.0188 9.52278 32.8197 8.85614 32.4761 8.26207C32.1325 7.668 31.6541 7.16317 31.0796 6.78836ZM29.7358 20.9222C29.705 21.4498 29.5512 21.9628 29.2866 22.4202C29.022 22.8776 28.654 23.2664 28.2121 23.5557L20.1491 28.2165C19.6781 28.4546 19.1579 28.5786 18.6302 28.5786C18.1026 28.5786 17.5823 28.4546 17.1114 28.2165L9.05782 23.5557C8.6159 23.2664 8.2479 22.8776 7.98334 22.4202C7.71873 21.9628 7.56491 21.4498 7.53417 20.9222V11.6102C7.56491 11.0825 7.71873 10.5695 7.98334 10.1122C8.2479 9.65479 8.6159 9.26588 9.05782 8.97662L17.1019 4.31589C17.5728 4.07778 18.0931 3.9537 18.6208 3.9537C19.1484 3.9537 19.6687 4.07778 20.1397 4.31589L28.2027 8.97662C28.6463 9.26484 29.0162 9.65331 29.2824 10.1107C29.5487 10.5681 29.704 11.0817 29.7358 11.6102V20.9222Z" fill="#64748B"/>
<path d="M14.5799 16.2662C14.5799 17.0238 14.8177 17.7645 15.2634 18.3945C15.7092 19.0246 16.3427 19.5156 17.0839 19.8055C17.8251 20.0955 18.6407 20.1713 19.4276 20.0236C20.2144 19.8757 20.9372 19.5109 21.5044 18.9751C22.0717 18.4393 22.4581 17.7567 22.6146 17.0136C22.7711 16.2704 22.6908 15.5001 22.3838 14.8001C22.0767 14.1001 21.5569 13.5018 20.8898 13.0808C20.2228 12.6599 19.4385 12.4352 18.6362 12.4352C17.5604 12.4352 16.5287 12.8388 15.768 13.5573C15.0072 14.2757 14.5799 15.2501 14.5799 16.2662Z" fill="#64748B"/>
</g>
<defs>
<filter id="filter0_d_1_1040" x="0.212433" y="0.266174" width="36.8451" height="40" filterUnits="userSpaceOnUse" color-interpolation-filters="sRGB">
<feFlood flood-opacity="0" result="BackgroundImageFix"/>
<feColorMatrix in="SourceAlpha" type="matrix" values="0 0 0 0 0 0 0 0 0 0 0 0 0 0 0 0 0 0 127 0" result="hardAlpha"/>
<feOffset dy="4"/>
<feGaussianBlur stdDeviation="2"/>
<feComposite in2="hardAlpha" operator="out"/>
<feColorMatrix type="matrix" values="0 0 0 0 0 0 0 0 0 0 0 0 0 0 0 0 0 0 0.25 0"/>
<feBlend mode="normal" in2="BackgroundImageFix" result="effect1_dropShadow_1_1040"/>
<feBlend mode="normal" in="SourceGraphic" in2="effect1_dropShadow_1_1040" result="shape"/>
</filter>
</defs>
</svg>
