<svg width="26" height="33" viewBox="0 0 26 33" fill="none" xmlns="http://www.w3.org/2000/svg">
<path d="M15.763 9.30396C16.7145 9.30483 17.655 9.51143 18.5233 9.91017C19.3916 10.309 20.1683 10.891 20.8026 11.6182L22.7882 9.78226C21.5172 8.33262 19.8497 7.30954 18.0032 6.84661C16.1567 6.38362 14.2171 6.50227 12.4373 7.18702C10.6576 7.87177 9.12038 9.09082 8.02637 10.6851C6.93231 12.2794 6.33226 14.1749 6.30443 16.1243C6.2766 18.0736 6.82234 19.9863 7.87039 21.6128C8.91849 23.2392 10.4202 24.5039 12.1797 25.2418C13.9391 25.9796 15.8746 26.1565 17.7335 25.7491C19.5923 25.3418 21.2884 24.3693 22.6002 22.9584L20.6596 21.0684C19.8866 21.8975 18.9253 22.5172 17.8617 22.8722C16.798 23.2271 15.6652 23.3063 14.5645 23.1024C13.4637 22.8987 12.4295 22.4183 11.554 21.7043C10.6785 20.9904 9.98913 20.065 9.54758 19.011C9.10598 17.957 8.92591 16.8072 9.02346 15.6644C9.12106 14.5216 9.49318 13.4213 10.1066 12.4621C10.7201 11.5028 11.5557 10.7144 12.5389 10.1674C13.522 9.62028 14.622 9.3316 15.7405 9.32709L15.763 9.30396Z" fill="#64748B"/>
<path d="M6.78784 7.01007L4.82877 5.11465C3.29834 6.57657 2.08394 8.31426 1.25524 10.228C0.426588 12.1417 -3.05176e-05 14.1937 -3.05176e-05 16.2662C-3.05176e-05 18.3386 0.426588 20.3906 1.25524 22.3043C2.08394 24.2181 3.29834 25.9558 4.82877 27.4177L6.78784 25.5222C5.51187 24.3119 4.49883 22.8706 3.80738 21.2817C3.11599 19.6928 2.75997 17.9881 2.75997 16.2662C2.75997 14.5443 3.11599 12.8395 3.80738 11.2506C4.49883 9.66175 5.51187 8.2204 6.78784 7.01007Z" fill="#64748B"/>
<path d="M25.2124 3.40572C22.5412 1.36204 19.3135 0.262016 16.0003 0.266186V3.01814C18.7341 3.01552 21.3979 3.91957 23.6065 5.59952L25.2124 3.40572Z" fill="#64748B"/>
<path d="M16.0003 29.5513V32.2661C19.0996 32.2696 22.1325 31.366 24.7276 29.666L23.2032 27.4177C21.0587 28.8135 18.5565 29.5548 16.0003 29.5513Z" fill="#64748B"/>
<path d="M15.9999 26.1982C13.9004 26.1968 11.852 25.5689 10.1321 24.3995C8.4121 23.2301 7.10359 21.5756 6.38359 19.6601L3.87872 20.7899C4.822 23.1688 6.48502 25.2143 8.64876 26.657C10.8125 28.0998 13.3754 28.8721 15.9999 28.8722V26.1982Z" fill="#64748B"/>
<path d="M6.06832 15.7813C6.23093 13.2308 7.34773 10.8383 9.19205 9.08916C11.0364 7.34012 13.4701 6.36548 15.9995 6.36301V3.66013C12.7603 3.66003 9.64519 4.91831 7.29867 7.17455C4.95215 9.43084 3.55389 12.5123 3.39341 15.7813H6.06832Z" fill="#64748B"/>
</svg>
