<svg width="65" height="65" viewBox="0 0 65 65" fill="none" xmlns="http://www.w3.org/2000/svg">
<path d="M32.6667 6.5C18.3304 6.5 6.66667 18.1638 6.66667 32.5C6.66667 46.8363 18.3304 58.5 32.6667 58.5C47.0029 58.5 58.6667 46.8363 58.6667 32.5C58.6667 18.1638 47.0029 6.5 32.6667 6.5ZM42.0029 38.1025C40.9404 39.3975 37.0417 42.9125 32.6667 46.0413C28.2917 42.9163 24.3929 39.3975 23.3304 38.1025C20.8304 35.0563 19.6329 31.9275 19.6679 28.54C19.7067 24.6575 22.8204 21.4988 26.6092 21.4988C29.3592 21.4988 31.2717 23.05 32.3829 24.3438L32.6667 24.6875L32.9504 24.3438C34.0417 23.0363 35.9692 21.5 38.7242 21.5C42.5129 21.5 45.6267 24.6588 45.6654 28.5413C45.7004 31.9275 44.5017 35.0563 42.0029 38.1025Z" fill="#FACC15"/>
<path d="M43.1627 39.0538L43.1626 39.054C41.9741 40.5024 37.9481 44.1084 33.5392 47.2614L32.6672 47.885L31.7948 47.2619C27.3849 44.1119 23.3593 40.5024 22.1709 39.0541L43.1627 39.0538ZM43.1627 39.0538C45.8462 35.7824 47.2044 32.3209 47.1653 28.5263M43.1627 39.0538L47.1653 28.5263M32.66 22.4707C31.3225 21.2286 29.3121 19.9988 26.6092 19.9988C21.964 19.9988 18.2149 23.8541 18.168 28.5245L32.66 22.4707ZM32.66 22.4707C34.0012 21.2139 36.0239 20 38.7242 20C43.3695 20 47.1187 23.8557 47.1653 28.5263M32.66 22.4707L47.1653 28.5263M18.168 28.5251C18.1289 32.3205 19.4856 35.7821 22.1708 39.054L18.168 28.5251Z" fill="#FB923C" stroke="#0F172A" stroke-width="3"/>
</svg>
